<svg xmlns="http://www.w3.org/2000/svg" viewBox="0 0 393.34 177.5"><defs><style>.cls-1{fill:#a5a8aa;}.cls-2{fill:#1e92c4;}.cls-3{fill:#717072;}.cls-4{fill:#a8aaac;}</style></defs><title>logo-blue-app</title><g id="Calque_2" data-name="Calque 2"><g id="Calque_1-2" data-name="Calque 1"><path class="cls-1" d="M259.2,59.38,288,121.06h-6.65l-9.71-20.3H245l-9.61,20.3h-6.87l29.14-61.68Zm-.78,13.1L247.85,94.81h21.09Z"/><path class="cls-1" d="M301.92,59.38H314.2q10.57,0,14.26.92a15.86,15.86,0,0,1,8.64,5.35,15.39,15.39,0,0,1,3.35,10.16A15.56,15.56,0,0,1,337.18,86a16.06,16.06,0,0,1-9,5.39q-4.2,1-15.68,1h-4.41v28.68h-6.16Zm6.16,6V86.34l10.44.12q6.33,0,9.27-1.15a9.42,9.42,0,0,0,4.61-3.72,10.3,10.3,0,0,0,1.68-5.75,10.13,10.13,0,0,0-1.68-5.67A9.28,9.28,0,0,0,328,66.5q-2.75-1.08-9-1.08Z"/><path class="cls-1" d="M354.41,59.38h12.28q10.57,0,14.26.92a15.86,15.86,0,0,1,8.64,5.35,15.39,15.39,0,0,1,3.35,10.16A15.56,15.56,0,0,1,389.67,86a16.06,16.06,0,0,1-9,5.39q-4.2,1-15.68,1h-4.41v28.68h-6.16Zm6.16,6V86.34l10.44.12q6.33,0,9.27-1.15a9.42,9.42,0,0,0,4.61-3.72,10.3,10.3,0,0,0,1.68-5.75,10.13,10.13,0,0,0-1.68-5.67,9.28,9.28,0,0,0-4.42-3.67q-2.75-1.08-9-1.08Z"/><path class="cls-2" d="M0,121.05V59.39H9.69q8.44,0,12.34,1.09a16.52,16.52,0,0,1,8.82,5.45,14.32,14.32,0,0,1,3.27,9.39,13.74,13.74,0,0,1-1.49,6.39,16.15,16.15,0,0,1-4.84,5.38A19.33,19.33,0,0,1,36,93.7a16.69,16.69,0,0,1,2.6,9.36,17.47,17.47,0,0,1-2.69,9.48A17.16,17.16,0,0,1,29,118.93q-4.24,2.11-11.71,2.12ZM11.74,70.58v13H14.3q4.29,0,6.38-1.8a6.14,6.14,0,0,0,2.08-4.9,5.73,5.73,0,0,0-2-4.59c-1.32-1.14-3.32-1.7-6-1.7Zm0,23.47v15.81h2.94q7.31,0,9.86-1.85a6.23,6.23,0,0,0,2.54-5.36,7.52,7.52,0,0,0-3-6.29q-3-2.31-9.92-2.31Z"/><path class="cls-2" d="M49.8,59.39H61.53v50.47H78.64v11.19H49.8Z"/><path class="cls-2" d="M87.15,59.39H98.92V99.26q0,5.14.91,7.29a7.26,7.26,0,0,0,3,3.41,9.4,9.4,0,0,0,5,1.28,9.78,9.78,0,0,0,5.35-1.43,7.5,7.5,0,0,0,3.1-3.62q.85-2.19.86-8.4V59.39H128.9V96.15q0,9.3-1.05,12.91A19.8,19.8,0,0,1,117,121a23,23,0,0,1-9,1.62,21.71,21.71,0,0,1-11.67-3.08,18,18,0,0,1-7.11-7.72q-2.13-4.62-2.13-15.65Z"/><path class="cls-2" d="M142.56,59.39h33.66V70.87h-22V82h22V93.3h-22v16.22h22v11.53H142.56Z"/><path class="cls-3" d="M203.35,0,184.6,69.56l12.28-5.12-5.8,59.33,22.84-89.33-9.54,4.38Q203.87,19.41,203.35,0Z"/><path class="cls-4" d="M213.92,34.44q-11.41,44.67-22.84,89.33l10-2.93q-1.82,28.33-3.64,56.66l21.75-87.93L205.87,99Q209.91,66.75,213.92,34.44Z"/><path class="cls-4" d="M.94,134.73H15.88c4.17,0,6.76,1.27,6.76,3.81a3.4,3.4,0,0,1-2,2.76v0c2.27.7,3.73,2.16,3.73,3.88,0,2.41-1.74,4.36-6.76,4.36H.94Zm14.94,6.15c2.62,0,3.92-1,3.92-2.23,0-1.46-1.3-2.22-4.35-2.22h-12v4.45Zm1.23,7c2.52,0,4.25-.74,4.25-2.88,0-1.66-1.73-2.61-3.83-2.61l-14,0v4.24a1.14,1.14,0,0,0,1.27,1.27Z"/><path class="cls-4" d="M39.34,143.18v6.38H36.8v-6.35l-12.67-8.48h3.81l10.13,7,10.13-7H52Z"/><path class="cls-2" d="M74.18,134.73H89.12c4.17,0,6.76,1.27,6.76,3.81a3.4,3.4,0,0,1-2,2.76v0c2.27.7,3.73,2.16,3.73,3.88,0,2.41-1.74,4.36-6.76,4.36H74.18Zm14.94,6.15c2.63,0,3.92-1,3.92-2.23,0-1.46-1.29-2.22-4.34-2.22h-12v4.45Zm1.23,7c2.52,0,4.26-.74,4.26-2.88,0-1.66-1.74-2.61-3.84-2.61l-14,0v4.24A1.14,1.14,0,0,0,78,147.87Z"/><path class="cls-2" d="M123.62,147.87v1.69h-21.7V134.73h2.76v13.14Z"/><path class="cls-2" d="M126.06,142.36v-7.63h2.54l0,8.05c0,4.94,4.13,5.68,8.84,5.68s8.83-1.1,8.83-5.68v-8.05h2.54v7.63c0,5.59-3.81,7.8-11.37,7.8S126.06,148.25,126.06,142.36Z"/><path class="cls-2" d="M154.52,134.73h21.7v1.7H157.06v4.45h16.19v1.69H157.06v5.3h19.16v1.69h-21.7Z"/><path class="cls-1" d="M228.66,134.73h21.7v1.7H231.2v4.45h16.19v1.69H231.2v5.3h19.16v1.69h-21.7Z"/><path class="cls-1" d="M254.49,134.73h2.71l19.65,12.37V134.73h2.54v14.83h-2.54L257,137.46v12.1h-2.54Z"/><path class="cls-1" d="M285.11,134.73h21.7v1.7H287.66v4.45h16.18v1.69H287.66v5.3h19.15v1.69h-21.7Z"/><path class="cls-1" d="M330.74,149.56l-7.29-6.76-9.32,0v6.78h-2.55V134.73h14.94c3.75,0,6.76,1.48,6.76,4,0,3-3,4-6.76,4h-.08l7.26,6.76Zm-16.61-8.26h12.39c2.2,0,3.92-.45,3.92-2.54,0-1.68-1.72-2.33-3.92-2.33H314.13Z"/><path class="cls-1" d="M336.57,142.15c0-4.6,6.23-8.06,15.06-8.06,4,0,7.93.47,10.53,1.62v2.83h-.65c-1.36-2.11-6.06-2.75-9.88-2.75-6.93,0-12.07,2.75-12.07,6.36s5.14,6.35,12.07,6.35a22.59,22.59,0,0,0,8.27-1.4v-4.53H346.76v-1.69h15.4l.43,7.77a33.89,33.89,0,0,1-11,1.55C342.8,150.2,336.57,146.74,336.57,142.15Z"/><path class="cls-1" d="M380.67,143.18v6.38h-2.55v-6.35l-12.67-8.48h3.82l10.12,7,10.13-7h3.82Z"/></g></g></svg>