<svg xmlns="http://www.w3.org/2000/svg" viewBox="0 0 348.94 91.29"><defs><style>.cls-1{fill:#a5a8aa;}.cls-2{fill:#1e92c4;}.cls-3{fill:#717072;}.cls-4{fill:#a8aaac;}</style></defs><title>logo-blue-app2</title><g id="Calque_2" data-name="Calque 2"><g id="Calque_1-2" data-name="Calque 1"><path class="cls-1" d="M240.2,5.47,269,67.15h-6.65L252.6,46.86H226l-9.61,20.29h-6.87L238.69,5.47Zm-.78,13.11L228.85,40.9h21.09Z"/><path class="cls-1" d="M269,5.47h12.29q10.57,0,14.26.93a15.72,15.72,0,0,1,8.63,5.34,15.39,15.39,0,0,1,3.36,10.17,15.56,15.56,0,0,1-3.27,10.17,16.15,16.15,0,0,1-9,5.39q-4.18,1-15.68,1h-4.4V67.15H269Zm6.17,6V32.43l10.44.13q6.33,0,9.27-1.15a9.53,9.53,0,0,0,4.61-3.73,10.54,10.54,0,0,0,0-11.42,9.18,9.18,0,0,0-4.43-3.66c-1.83-.73-4.82-1.09-9-1.09Z"/><path class="cls-1" d="M310.41,5.47h12.28q10.57,0,14.26.93a15.78,15.78,0,0,1,8.64,5.34,15.44,15.44,0,0,1,3.35,10.17,15.56,15.56,0,0,1-3.27,10.17,16.12,16.12,0,0,1-9,5.39q-4.2,1-15.68,1h-4.41V67.15h-6.16Zm6.16,6V32.43l10.44.13q6.33,0,9.27-1.15a9.49,9.49,0,0,0,4.61-3.73,10.54,10.54,0,0,0,0-11.42,9.2,9.2,0,0,0-4.42-3.66q-2.75-1.1-9-1.09Z"/><path class="cls-2" d="M0,67.14V5.48H9.69q8.44,0,12.34,1.09A16.58,16.58,0,0,1,30.85,12a14.36,14.36,0,0,1,3.27,9.39,13.68,13.68,0,0,1-1.49,6.39,16.17,16.17,0,0,1-4.84,5.39A19.32,19.32,0,0,1,36,39.79a16.7,16.7,0,0,1,2.6,9.37,17.46,17.46,0,0,1-2.69,9.47A17.25,17.25,0,0,1,29,65q-4.24,2.11-11.71,2.11ZM11.74,16.67v13H14.3q4.29,0,6.38-1.8A6.16,6.16,0,0,0,22.76,23a5.73,5.73,0,0,0-2-4.59q-2-1.7-6-1.7Zm0,23.48V56h2.94q7.31,0,9.86-1.84a6.23,6.23,0,0,0,2.54-5.37,7.54,7.54,0,0,0-3-6.29q-3-2.3-9.92-2.3Z"/><path class="cls-2" d="M49.8,5.48H61.53V56H78.64V67.14H49.8Z"/><path class="cls-2" d="M87.15,5.48H98.92V45.35q0,5.16.91,7.29a7.28,7.28,0,0,0,3,3.42,9.4,9.4,0,0,0,5,1.27,9.78,9.78,0,0,0,5.35-1.42,7.59,7.59,0,0,0,3.1-3.62q.85-2.2.86-8.4V5.48H128.9V42.24q0,9.32-1.05,12.91a18.26,18.26,0,0,1-4,7,18.59,18.59,0,0,1-6.81,5,23.2,23.2,0,0,1-9,1.61,21.63,21.63,0,0,1-11.67-3.08,17.94,17.94,0,0,1-7.11-7.71q-2.13-4.63-2.13-15.66Z"/><path class="cls-2" d="M142.56,5.48h33.66V17h-22V28.12h22V39.39h-22V55.61h22V67.14H142.56Z"/><path class="cls-3" d="M197.94,0l-7.49,27.78,4.91-2.05L193,49.42l9.12-35.67-3.81,1.75Q198.16,7.75,197.94,0Z"/><path class="cls-4" d="M202.16,13.75,193,49.42l4-1.17q-.73,11.32-1.46,22.63,4.35-17.56,8.69-35.11L199,39.55Z"/><path class="cls-4" d="M.94,75.83H15.88c4.17,0,6.76,1.27,6.76,3.81a3.38,3.38,0,0,1-2,2.75v0c2.27.7,3.73,2.17,3.73,3.88,0,2.42-1.74,4.37-6.76,4.37H.94ZM15.88,82c2.62,0,3.92-1,3.92-2.23,0-1.46-1.3-2.22-4.35-2.22h-12V82Zm1.23,7c2.52,0,4.25-.74,4.25-2.88,0-1.65-1.73-2.61-3.83-2.61l-14,0v4.24A1.14,1.14,0,0,0,4.75,89Z"/><path class="cls-4" d="M39.34,84.28v6.38H36.8V84.3L24.13,75.83h3.81l10.13,7,10.13-7H52Z"/><path class="cls-2" d="M66.18,75.83H81.12c4.17,0,6.76,1.27,6.76,3.81a3.38,3.38,0,0,1-2,2.75v0c2.27.7,3.73,2.17,3.73,3.88,0,2.42-1.74,4.37-6.76,4.37H66.18ZM81.12,82C83.75,82,85,81,85,79.74c0-1.46-1.29-2.22-4.34-2.22h-12V82Zm1.23,7c2.52,0,4.26-.74,4.26-2.88,0-1.65-1.74-2.61-3.84-2.61l-14,0v4.24A1.14,1.14,0,0,0,70,89Z"/><path class="cls-2" d="M115.62,89v1.7H93.92V75.83h2.76V89Z"/><path class="cls-2" d="M118.06,83.45V75.83h2.54l0,8c0,4.93,4.13,5.68,8.84,5.68s8.83-1.11,8.83-5.68v-8h2.54v7.62c0,5.6-3.81,7.8-11.37,7.8S118.06,89.34,118.06,83.45Z"/><path class="cls-2" d="M146.52,75.83h21.7v1.69H149.06V82h16.19v1.7H149.06V89h19.16v1.7h-21.7Z"/><path class="cls-1" d="M184.27,75.83H206v1.69H186.81V82H203v1.7H186.81V89H206v1.7H184.27Z"/><path class="cls-1" d="M210.1,75.83h2.71L232.45,88.2V75.83H235V90.66h-2.55l-19.81-12.1v12.1H210.1Z"/><path class="cls-1" d="M240.72,75.83h21.7v1.69H243.26V82h16.19v1.7H243.26V89h19.16v1.7h-21.7Z"/><path class="cls-1" d="M286.34,90.66l-7.28-6.76-9.33,0v6.78h-2.54V75.83h14.94c3.75,0,6.76,1.48,6.76,4,0,3-3,4.05-6.76,4.05H282l7.27,6.76Zm-16.61-8.27h12.4c2.2,0,3.92-.44,3.92-2.54,0-1.67-1.72-2.33-3.92-2.33h-12.4Z"/><path class="cls-1" d="M292.18,83.24c0-4.6,6.23-8,15.06-8,4,0,7.92.47,10.53,1.61v2.84h-.66c-1.35-2.12-6.05-2.76-9.87-2.76-6.93,0-12.08,2.76-12.08,6.36s5.15,6.36,12.08,6.36a22.71,22.71,0,0,0,8.26-1.4V83.67H302.37V82h15.4l.42,7.78a33.84,33.84,0,0,1-10.95,1.54C298.41,91.29,292.18,87.84,292.18,83.24Z"/><path class="cls-1" d="M336.27,84.28v6.38h-2.54V84.3l-12.67-8.47h3.81l10.13,7,10.13-7h3.81Z"/></g></g></svg>